<?xml version="1.0" encoding="UTF-8" standalone="no"?>
<svg width="550px" height="138px" viewBox="0 0 550 138" version="1.1" xmlns="http://www.w3.org/2000/svg" xmlns:xlink="http://www.w3.org/1999/xlink">
    <!-- Generator: Sketch 3.7.1 (28215) - http://www.bohemiancoding.com/sketch -->
    <title>logo</title>
    <desc>Created with Sketch.</desc>
    <defs></defs>
    <g id="Page-1" stroke="none" stroke-width="1" fill="none" fill-rule="evenodd">
        <g id="logo" fill="#DA1200">
            <path d="M61.6159998,122.016 C51.5359494,122.016 42.2720421,120.360017 33.8239998,117.048 C25.3759576,113.735983 18.0800306,109.296028 11.9359998,103.728 L31.2319998,80.688 C36.9920286,85.5840245 42.751971,89.1839885 48.5119998,91.488 C54.2720286,93.7920115 59.839973,94.944 65.2159998,94.944 C67.4240109,94.944 69.1999931,94.5600038 70.5439998,93.792 C71.8880066,93.0239962 72.5599998,91.9200072 72.5599998,90.48 C72.5599998,89.7119962 72.3920015,89.0160031 72.0559998,88.392 C71.7199982,87.7679969 70.9760056,87.1440031 69.8239998,86.52 C68.6719941,85.8959969 66.9920109,85.1280046 64.7839998,84.216 C62.5759888,83.3039954 59.6480181,82.1760067 55.9999998,80.832 C51.2959763,79.1039914 47.2160171,77.3520089 43.7599998,75.576 C40.3039826,73.7999911 37.4480111,71.808011 35.1919998,69.6 C32.9359886,67.391989 31.2560054,64.9200137 30.1519998,62.184 C29.0479943,59.4479863 28.4959998,56.2080187 28.4959998,52.464 C28.4959998,47.5679755 29.575989,42.9840214 31.7359998,38.712 C33.8960106,34.4399786 36.9439802,30.7200158 40.8799998,27.552 C44.8160195,24.3839842 49.567972,21.8640094 55.1359998,19.992 C60.7040277,18.1199906 66.9439653,17.184 73.8559998,17.184 C82.880045,17.184 91.2559612,18.5279866 98.9839998,21.216 C106.712038,23.9040134 113.311972,27.5999765 118.784,32.304 L99.4879998,55.344 C95.6479806,52.2719846 91.1840253,49.632011 86.0959998,47.424 C81.0079744,45.215989 75.7760267,44.112 70.3999998,44.112 C68.1919888,44.112 66.4160066,44.4239969 65.0719998,45.048 C63.7279931,45.6720031 63.0559998,46.7039928 63.0559998,48.144 C63.0559998,48.9120038 63.2479979,49.5599974 63.6319998,50.088 C64.0160018,50.6160026 64.7839941,51.1679971 65.9359998,51.744 C67.0880056,52.3200029 68.7199893,53.0159959 70.8319998,53.832 C72.9440104,54.6480041 75.7279826,55.6799938 79.1839998,56.928 C83.5040214,58.5600082 87.3919826,60.2399914 90.8479998,61.968 C94.3040171,63.6960086 97.2559876,65.6879887 99.7039998,67.944 C102.152012,70.2000113 104.023993,72.7919854 105.32,75.72 C106.616006,78.6480146 107.264,82.0319808 107.264,85.872 C107.264,90.9600254 106.23201,95.7119779 104.168,100.128 C102.10399,104.544022 99.1280193,108.359984 95.2399998,111.576 C91.3519804,114.792016 86.5760282,117.335991 80.9119998,119.208 C75.2479715,121.080009 68.8160358,122.016 61.6159998,122.016 L61.6159998,122.016 Z M145.498,47.712 L115.834,47.712 L123.466,19.2 L216.49,19.2 L208.858,47.712 L179.194,47.712 L159.754,120 L126.058,120 L145.498,47.712 Z M253.86,92.352 C257.412018,92.352 260.603986,91.5600079 263.436,89.976 C266.268014,88.3919921 268.69199,86.3520125 270.708,83.856 C272.72401,81.3599875 274.283994,78.5280158 275.388,75.36 C276.492006,72.1919842 277.044,69.0240158 277.044,65.856 C277.044,63.1679866 276.636004,60.6720115 275.82,58.368 C275.003996,56.0639885 273.828008,54.0480086 272.292,52.32 C270.755992,50.5919914 268.812012,49.2480048 266.46,48.288 C264.107988,47.3279952 261.444015,46.848 258.468,46.848 C254.915982,46.848 251.724014,47.6399921 248.892,49.224 C246.059986,50.8080079 243.63601,52.8479875 241.62,55.344 C239.60399,57.8400125 238.044006,60.6719842 236.94,63.84 C235.835994,67.0080158 235.284,70.1759842 235.284,73.344 C235.284,76.0320134 235.691996,78.5279885 236.508,80.832 C237.324004,83.1360115 238.499992,85.1519914 240.036,86.88 C241.572008,88.6080086 243.491988,89.9519952 245.796,90.912 C248.100012,91.8720048 250.787985,92.352 253.86,92.352 L253.86,92.352 Z M251.556,122.016 C244.163963,122.016 237.396031,120.840012 231.252,118.488 C225.107969,116.135988 219.828022,112.92002 215.412,108.84 C210.995978,104.75998 207.564012,99.9360278 205.116,94.368 C202.667988,88.7999722 201.444,82.8000322 201.444,76.368 C201.444,68.5919611 202.955985,61.1280358 205.98,53.976 C209.004015,46.8239642 213.155974,40.5120274 218.436,35.04 C223.716026,29.5679726 229.979964,25.2240161 237.228,22.008 C244.476036,18.7919839 252.323958,17.184 260.772,17.184 C268.164037,17.184 274.931969,18.3599882 281.076,20.712 C287.220031,23.0640118 292.499978,26.2799796 296.916,30.36 C301.332022,34.4400204 304.763988,39.2639722 307.212,44.832 C309.660012,50.4000278 310.884,56.3999678 310.884,62.832 C310.884,70.6080389 309.372015,78.0719642 306.348,85.224 C303.323985,92.3760358 299.172026,98.6879726 293.892,104.16 C288.611974,109.632027 282.348036,113.975984 275.1,117.192 C267.851964,120.408016 260.004042,122.016 251.556,122.016 L251.556,122.016 Z M359.63,67.152 C365.294028,67.152 369.565986,66.0240113 372.446,63.768 C375.326014,61.5119887 376.766,58.8000158 376.766,55.632 C376.766,53.5199894 376.046007,51.7440072 374.606,50.304 C372.68599,48.3839904 369.374024,47.424 364.67,47.424 L352.718,47.424 L347.39,67.152 L359.63,67.152 Z M324.654,19.2 L363.966,19.2 C373.278047,19.2 380.95797,20.1599904 387.006,22.08 C393.05403,24.0000096 397.757983,26.6399832 401.118,30 C403.902014,32.7840139 405.917994,35.975982 407.166,39.576 C408.414006,43.176018 409.038,46.9919798 409.038,51.024 C409.038,54.9600197 408.510005,58.727982 407.454,62.328 C406.397995,65.928018 404.742011,69.2639846 402.486,72.336 C400.229989,75.4080154 397.326018,78.143988 393.774,80.544 C390.221982,82.944012 385.950025,84.9119923 380.958,86.448 L394.926,120 L358.638,120 L347.406,91.2 L339.054,91.2 L331.278,120 L297.582,120 L324.654,19.2 Z M421.496,19.2 L454.76,19.2 L466.856,54.624 L497.96,19.2 L534.968,19.2 L507.896,120 L474.344,120 L487.736,70.032 L454.904,105.888 L454.328,105.888 L440.792,70.032 L427.4,120 L394.424,120 L421.496,19.2 Z" id="STORM"></path>
        </g>
    </g>
</svg>